<?xml version="1.0" encoding="UTF-8"?>
<svg width="100px" height="100px" viewBox="0 0 100 100" version="1.1" xmlns="http://www.w3.org/2000/svg" xmlns:xlink="http://www.w3.org/1999/xlink">
    <!-- Generator: Sketch 46 (44423) - http://www.bohemiancoding.com/sketch -->
    <title>NAV</title>
    <desc>Created with Sketch.</desc>
    <defs>
        <circle id="path-1" cx="50" cy="50" r="50"></circle>
    </defs>
    <g id="Landingssiden" stroke="none" stroke-width="1" fill="none" fill-rule="evenodd">
        <g id="Ditt_Sykefravær_ingen-sykmelding" transform="translate(-462.000000, -459.000000)">
            <g id="NAV" transform="translate(462.000000, 459.000000)">
                <g id="Group-11">
                    <g id="Navansatt-dame">
                        <mask id="mask-2" fill="white">
                            <use xlink:href="#path-1"></use>
                        </mask>
                        <use id="Mask" fill="#C2EAF7" xlink:href="#path-1"></use>
                        <g mask="url(#mask-2)">
                            <g transform="translate(20.000000, 18.750000)">
                                <path d="M54.5788986,26.8424389 L54.5318514,26.8424389 C54.5318514,12.2139063 43.931163,0.354938859 30.8538442,0.354938859 C17.777413,0.354938859 7.17672464,12.2139063 7.17672464,26.8424389 L7.17672464,26.8556861 C7.17228623,39.3487568 0.70109058,46.4908084 0.70109058,46.4908084 C0.70109058,46.4908084 7.09150725,54.2952242 30.8547319,54.2952242 C30.862721,54.2952242 30.8707101,54.294341 30.8778116,54.294341 C30.8866884,54.294341 30.8929022,54.2952242 30.9008913,54.2952242 C54.6650036,54.2952242 61.0554203,46.4908084 61.0554203,46.4908084 C61.0554203,46.4908084 54.5788986,39.3434579 54.5788986,26.8424389" id="Fill-94" fill="#E57F68"></path>
                                <path d="M38.1112591,45.8778125 L30.878433,45.8778125 L23.6456069,45.8778125 C19.7460236,45.8778125 6.92169384,53.9144973 6.92169384,61.3974457 L6.92169384,81.0846739 L54.8342844,81.0846739 L54.8342844,61.3974457 C54.8342844,53.9144973 42.0108424,45.8778125 38.1112591,45.8778125" id="Fill-95" fill="#624B7F"></path>
                                <path d="M51.7437337,23.7557337 C51.6167953,23.0236005 50.9812156,22.4663315 50.2098207,22.4663315 C50.0109801,22.4663315 49.821904,22.5069565 49.6479185,22.5740761 C49.6248388,22.5767255 49.6044221,22.5784918 49.5813424,22.5802582 C43.7963243,14.7431658 32.5147844,21.9735326 23.9051649,14.4897011 C22.8017772,13.3186413 22.2265598,12.5034918 22.075654,12.5034918 C22.075654,12.5034918 13.7243496,19.706481 12.3342409,22.4663315 C12.3342409,22.4663315 12.2357083,22.6632745 12.1096576,22.5740761 C11.9347844,22.5069565 11.746596,22.4663315 11.5477554,22.4663315 C10.7754728,22.4663315 10.1381178,23.0244837 10.012067,23.7557337 C9.98011051,23.879375 9.95791848,24.0074321 9.95791848,24.140788 L9.95791848,30.42 C9.95791848,31.2784239 10.6574112,31.975231 11.521125,31.975231 C11.8673207,31.975231 12.1842228,31.859538 12.4434257,31.6696603 C13.8086793,37.883519 17.4410707,43.0296467 22.2460888,45.8839946 C20.9092409,46.4386141 18.848933,47.5240082 18.848933,47.5240082 C19.8298207,48.956481 22.6153641,55.6225136 30.873462,55.6225136 C39.1315598,55.6225136 41.9250924,48.9573641 42.9068678,47.5240082 C42.9068678,47.5240082 41.1093134,46.5428261 39.593154,45.8354212 C44.3573388,42.9704755 47.9551105,37.8473098 49.3132627,31.6696603 C49.5724656,31.859538 49.8893678,31.975231 50.2346757,31.975231 C51.0983895,31.975231 51.7978822,31.2784239 51.7978822,30.42 L51.7978822,24.140788 C51.7978822,24.0074321 51.7756902,23.879375 51.7437337,23.7557337" id="Fill-96" fill="#E7E5E2"></path>
                                <path d="M49.3746014,74.2426291 L34.5361232,74.2426291 C33.873913,74.2426291 33.3377536,73.7092052 33.3377536,73.0503736 L33.3377536,65.1134851 C33.3377536,64.4546535 33.873913,63.9203465 34.5361232,63.9203465 L49.3746014,63.9203465 C50.0368116,63.9203465 50.5738587,64.4546535 50.5738587,65.1134851 L50.5738587,73.0503736 C50.5738587,73.7092052 50.0368116,74.2426291 49.3746014,74.2426291" id="Fill-97" fill="#D2242A"></path>
                                <path d="M45.8637337,69.2582948 C45.8637337,71.3354688 44.1718134,73.0214063 42.0839873,73.0214063 C39.9926105,73.0214063 38.2998025,71.3354688 38.2998025,69.2582948 C38.2998025,67.1811209 39.9926105,65.4951834 42.0839873,65.4951834 C44.1718134,65.4951834 45.8637337,67.1811209 45.8637337,69.2582948" id="Fill-98" fill="#FFFFFF"></path>
                                <polygon id="Fill-99" fill="#FFFFFF" points="37.1841649 70.9170313 36.4465018 70.9170313 37.2347627 68.994409 37.9742011 68.994409"></polygon>
                                <polygon id="Fill-100" fill="#FFFFFF" points="46.4809384 70.9170313 46.0237826 70.9170313 46.8120435 68.994409 47.2691993 68.994409"></polygon>
                                <polygon id="Fill-101" fill="#FFFFFF" points="47.7426884 70.9170313 47.5491739 70.9170313 48.3356594 68.994409 48.5291739 68.994409"></polygon>
                                <path d="M39.2109185,70.9077582 L39.791462,70.9077582 C39.8216431,70.9077582 39.8447228,70.8847962 39.8447228,70.8556522 L39.8447228,69.0566712 C39.8447228,69.0275272 39.8216431,69.0045652 39.791462,69.0045652 L39.2047047,69.0045652 C39.1656467,69.0045652 39.1372409,69.0345924 39.1372409,69.0725679 L38.9064438,69.6386685 C38.8922409,69.6678125 38.9153207,69.7031386 38.9463895,69.7031386 L39.1123859,69.7031386 C39.1372409,69.7031386 39.1585453,69.7216848 39.1585453,69.7490625 L39.1585453,70.8556522 C39.1585453,70.8847962 39.181625,70.9077582 39.2109185,70.9077582" id="Fill-102" fill="#C52D35"></path>
                                <path d="M40.4722246,70.9077582 L41.0545435,70.9077582 C41.0847246,70.9077582 41.1104674,70.8847962 41.1104674,70.8556522 L41.1104674,69.0566712 C41.1104674,69.0275272 41.0847246,69.0045652 41.0545435,69.0045652 L40.1491087,69.0045652 C40.1109384,69.0045652 40.0807572,69.0345924 40.0807572,69.0725679 L39.8490725,69.6386685 L39.7691812,69.7031386 L40.2325507,69.7031386 C40.3355217,69.7031386 40.4198514,69.7843886 40.4198514,69.8886005 L40.4198514,70.8556522 C40.4198514,70.8847962 40.4429312,70.9077582 40.4722246,70.9077582" id="Fill-103" fill="#C52D35"></path>
                                <path d="M43.0762373,69.0047418 L42.4939185,69.0047418 C42.464625,69.0047418 42.4406576,69.0277038 42.4406576,69.0568478 L42.4406576,70.8558288 C42.4406576,70.8849728 42.464625,70.9079348 42.4939185,70.9079348 L43.0824511,70.9079348 C43.1215091,70.9079348 43.1499149,70.8779076 43.1499149,70.8399321 L43.380712,70.2738315 C43.3949149,70.2429212 43.3727228,70.2093614 43.3372156,70.2093614 L43.1765453,70.2093614 C43.1499149,70.2093614 43.1312736,70.1881658 43.1312736,70.1643207 L43.1312736,69.0568478 C43.1312736,69.0277038 43.1046431,69.0047418 43.0762373,69.0047418" id="Fill-104" fill="#C52D35"></path>
                                <path d="M40.681096,70.9077582 L41.0636866,70.9077582 C41.1009692,70.9077582 41.1311504,70.8768478 41.1311504,70.8406386 L41.3619475,70.2727717 C41.3752627,70.2427446 41.3530707,70.2083016 41.3193388,70.2083016 L41.1577808,70.2083016 L40.681096,70.9077582 Z" id="Fill-105" fill="#C52D35"></path>
                                <path d="M44.6344728,69.0047418 L45.3268641,69.0047418 C45.360596,69.0047418 45.3845634,69.0365353 45.3703605,69.0674457 L44.6371359,70.8787908 C44.6318098,70.897337 44.6149438,70.9079348 44.5945272,70.9079348 L43.9678243,70.9079348 L44.5892011,69.0356522 C44.5963025,69.017106 44.6149438,69.0047418 44.6344728,69.0047418" id="Fill-106" fill="#C52D35"></path>
                                <path d="M43.7663207,69.0047418 L42.7872083,69.0047418 C42.7179692,69.0047418 43.0686033,69.0718614 43.0934583,69.1345652 L43.7858496,70.8478804 C43.8000525,70.885856 43.8355598,70.9079348 43.8746178,70.9079348 L44.4684764,70.9079348 L43.8577518,69.069212 C43.8444366,69.028587 43.807154,69.0047418 43.7663207,69.0047418" id="Fill-107" fill="#C52D35"></path>
                                <path d="M41.8869221,69.0047418 C42.2109257,69.0047418 42.4878822,69.226413 42.4878822,69.615 C42.4878822,69.998288 42.4390598,70.02125 42.4390598,70.02125 C42.4390598,70.02125 42.3840236,69.6538587 42.0990779,69.6538587 C41.8194583,69.6538587 41.7555453,69.8163587 41.7555453,69.9373505 C41.7555453,70.0777717 41.898462,70.2093614 41.9783533,70.2093614 L42.4878822,70.2093614 L42.1869583,70.8726087 C42.1763062,70.8946875 42.1550018,70.9079348 42.1310344,70.9079348 L41.8993496,70.9079348 C41.6570127,70.9079348 41.024096,70.5917663 41.024096,69.9797418 C41.024096,69.3668342 41.494567,69.0047418 41.8869221,69.0047418" id="Fill-108" fill="#C52D35"></path>
                                <path d="M42.9311014,64.9960258 L41.3252862,64.9960258 C41.206337,64.9960258 41.1104674,64.9006454 41.1104674,64.782303 L41.1104674,64.5129416 C41.1104674,64.3954823 41.206337,64.2992188 41.3252862,64.2992188 L42.9311014,64.2992188 C43.0500507,64.2992188 43.1459203,64.3954823 43.1459203,64.5129416 L43.1459203,64.782303 C43.1459203,64.9006454 43.0500507,64.9960258 42.9311014,64.9960258" id="Fill-109" fill="#5A1F57"></path>
                                <polygon id="Fill-110" fill="#835184" points="41.6633152 64.7147418 42.5936051 64.7147418 42.5936051 61.9451766 41.6633152 61.9451766"></polygon>
                            </g>
                        </g>
                    </g>
                </g>
                <g id="Smil-dame" transform="translate(41.666667, 40.000000)">
                    <path d="M1.6274,5.4756 C0.1804,5.5846 -0.2246,3.4516 0.2114,2.0586 C0.2934,1.7946 0.7724,0.5926 1.6204,0.5926 C2.4674,0.5926 2.8414,1.2496 2.8934,1.3626 C3.5164,2.7206 3.2104,5.3556 1.6274,5.4756" id="Fill-41" fill="#635E59"></path>
                    <path d="M17.7768,5.4756 C19.2238,5.5846 19.6288,3.4516 19.1928,2.0586 C19.1108,1.7946 18.6318,0.5926 17.7838,0.5926 C16.9368,0.5926 16.5628,1.2496 16.5108,1.3626 C15.8878,2.7206 16.1938,5.3556 17.7768,5.4756" id="Fill-43" fill="#635E59"></path>
                    <path d="M10.0849,7.4337 C10.9489,7.3007 11.7929,7.3327 12.1889,7.8187 C13.1539,9.0047 12.8769,10.3737 11.2519,11.3847 C10.4399,11.8897 9.2899,12.0967 8.5849,11.7847" id="Stroke-45" stroke="#D1BFA3" stroke-width="0.506" stroke-linecap="round"></path>
                    <path d="M16.3188,15.4185 C16.3188,15.4185 14.4908,19.6055 9.4048,19.4495 C4.3188,19.2935 2.4118,15.4185 2.4118,15.4185" id="Stroke-47" stroke="#D19E9C" stroke-width="0.8" stroke-linecap="round"></path>
                </g>
            </g>
        </g>
    </g>
</svg>